<svg width="228" height="92" viewBox="0 0 228 92" fill="none" xmlns="http://www.w3.org/2000/svg">
<path d="M18.0741 45.7503V75.7192C20.7485 75.5286 22.0857 75.4172 24.7602 75.1584V83.9689C17.1251 84.6447 9.52233 85.0474 1.85846 85.1193V76.3087C4.51134 76.3087 5.8378 76.2871 8.48708 76.208V46.2356C5.8378 46.3182 4.51134 46.3398 1.85846 46.3398V37.522C9.52233 37.4466 17.1251 37.0476 24.7602 36.3682V45.1787C22.0857 45.4304 20.7485 45.5598 18.0741 45.7503Z" fill="#FDBF63"/>
<path d="M48.0789 72.5201V80.7879C41.3676 81.9058 34.6564 82.8692 27.8984 83.6636V75.3958C30.0983 75.1586 31.1983 75.0364 33.4018 74.7452V43.6656C31.1983 43.9459 30.0983 44.079 27.8984 44.3162V36.0484C32.744 35.5212 37.5764 34.8766 42.3957 34.1145V73.4691C44.6676 73.1096 45.8071 72.9119 48.0789 72.5201Z" fill="#FDBF63"/>
<path d="M72.7241 67.6564V75.9242C66.014 77.4627 59.2871 78.9006 52.5435 80.2378V71.97C54.7471 71.5495 55.8471 71.3302 58.047 70.8916V39.812C55.8471 40.2613 54.7471 40.477 52.5435 40.8904V32.6226C57.3939 31.6952 62.2276 30.6899 67.0445 29.6067V68.9433C69.3163 68.4365 70.4522 68.1848 72.7241 67.6564Z" fill="#FDBF63"/>
<path d="M97.1356 61.5202V69.788C90.4255 71.5134 83.6998 73.1909 76.9586 74.8205V66.5527C79.1837 66.0279 80.2945 65.7619 82.5196 65.2191V49.0431C80.2945 49.5859 79.1837 49.8518 76.9586 50.3767V42.1089C81.8222 40.9622 86.6643 39.7544 91.5135 38.5142V62.9365C93.7638 62.3901 94.8889 62.0989 97.1356 61.5202ZM82.3974 34.2869C81.2926 33.5392 80.7402 32.4021 80.7402 30.8755C80.7405 29.2586 81.3296 27.6971 82.3974 26.4828C83.4453 25.2091 84.8782 24.3097 86.4809 23.9198C88.216 23.4837 89.6263 23.649 90.7119 24.4159C91.7975 25.1827 92.3402 26.381 92.3402 28.0106C92.3245 29.5783 91.735 31.086 90.6831 32.2487C89.5953 33.5365 88.122 34.4402 86.4809 34.8261C84.8657 35.2167 83.5057 35.037 82.401 34.2869H82.3974Z" fill="#FDBF63"/>
<path d="M140.991 50.082V58.3498C134.906 59.8811 128.83 61.446 122.762 63.0445V54.7767L127.259 53.5976V44.5102C127.259 42.6578 126.795 41.2643 125.868 40.3297C124.941 39.3915 123.596 39.111 121.993 39.5784C118.154 40.6927 115.346 44.708 113.412 48.0906V57.2462L117.909 56.0564V64.3242C111.556 66.0017 105.206 67.6792 98.8575 69.3567V61.089L104.418 59.6511V43.475L98.8575 44.9129V36.6451C103.71 35.3774 108.563 34.1013 113.416 32.8168V40.0996C115.503 36.7278 117.466 34.1504 119.304 32.3674C120.981 30.6782 123.072 29.4585 125.368 28.8302C128.92 27.8992 131.695 28.575 133.478 30.8181C135.897 33.87 136.321 38.3454 136.26 42.1773V51.2647C138.147 50.7938 139.096 50.5565 140.991 50.082Z" fill="#FDBF63"/>
<path d="M150.844 54.7765C148.389 53.9366 146.292 52.2892 144.895 50.1034C143.394 47.8364 142.646 45.0145 142.648 41.6379C142.634 38.3148 143.404 35.0354 144.895 32.0653C146.316 29.1532 148.345 26.5792 150.844 24.5164C153.131 22.5924 155.841 21.2373 158.752 20.5623C161.336 19.9463 164.045 20.1114 166.535 21.0368C169.015 21.9775 171.123 23.6982 172.541 25.94C174.08 28.2765 174.849 31.1451 174.849 34.5205C174.871 37.7935 174.12 41.0254 172.656 43.9529C171.262 46.7895 169.25 49.2779 166.768 51.2357C164.424 53.1179 161.683 54.4429 158.752 55.1108C156.137 55.7461 153.396 55.6302 150.844 54.7765ZM163.508 43.3526C164.788 41.4354 165.429 39.1145 165.431 36.3897C165.433 33.6649 164.792 31.6148 163.508 30.2392C162.927 29.5798 162.173 29.0958 161.331 28.8417C160.49 28.5877 159.594 28.5737 158.745 28.8013C156.852 29.2255 155.263 30.4081 153.978 32.3493C152.694 34.2904 152.053 36.6245 152.055 39.3517C152.055 42.0813 152.696 44.1183 153.978 45.4627C155.26 46.8071 156.849 47.2672 158.745 46.8431C160.636 46.4213 162.223 45.253 163.508 43.3382V43.3526Z" fill="#FDBF63"/>
<path d="M198.096 38.9601V47.2278C191.338 48.069 184.627 49.0827 177.915 50.2438V41.976C180.144 41.577 181.255 41.3865 183.48 41.0234V24.8473C181.255 25.2068 180.144 25.4045 177.915 25.8035V17.5358C182.754 16.6658 187.607 15.8978 192.474 15.2315V39.679C194.724 39.377 195.849 39.2333 198.096 38.9601ZM183.358 10.1019C182.814 9.69104 182.379 9.15381 182.091 8.5368C181.802 7.91979 181.668 7.24163 181.7 6.56117C181.686 4.97918 182.279 3.452 183.358 2.29428C184.413 1.0971 185.861 0.315756 187.441 0.0907415C189.177 -0.175265 190.587 0.144663 191.672 1.03614C192.758 1.92763 193.301 3.19295 193.301 4.80337C193.305 6.31658 192.709 7.76986 191.643 8.84379C190.533 10.0248 189.048 10.7866 187.441 11.0006C185.826 11.2402 184.466 10.9443 183.361 10.1127L183.358 10.1019Z" fill="#FDBF63"/>
<path d="M223.694 29.5527C225.527 31.4255 226.444 33.816 226.444 36.681C226.468 38.4421 225.997 40.1746 225.085 41.6812C224.158 43.1821 222.851 44.4111 221.296 45.2435C219.586 46.1198 217.711 46.6245 215.792 46.7245C212.662 46.9726 208.29 45.7648 206.029 43.3635V46.4837C203.513 46.703 202.266 46.8432 199.757 47.1092V36.2173C201.342 35.9009 202.133 35.75 203.711 35.4588C204.656 36.9865 206.137 38.1656 208.147 39.0247C210.156 39.8839 211.975 40.2685 213.593 40.1786C214.5 40.1753 215.389 39.9269 216.166 39.4597C216.444 39.2939 216.675 39.0592 216.835 38.7784C216.996 38.4975 217.081 38.18 217.083 37.8565C217.083 37.1627 216.612 36.512 215.645 35.9081C214.678 35.3042 212.816 34.5997 210.023 33.8879C206.45 32.9785 203.79 31.7706 202.093 30.1387C200.396 28.5067 199.548 26.2744 199.548 23.4058C199.54 21.6306 199.967 19.8806 200.792 18.3086C201.626 16.7141 202.847 15.3545 204.343 14.3544C205.907 13.2967 207.725 12.6762 209.61 12.5571C213.161 12.2983 216.08 13.4773 218.37 16.0295V12.9776C220.886 12.8842 222.134 12.8554 224.643 12.8338V23.6575C223.079 23.8372 222.299 23.9343 220.735 24.1427C219.391 21.2418 215.548 18.7507 212.331 19.0347C211.446 19.0649 210.582 19.3118 209.815 19.7536C209.536 19.9172 209.305 20.1503 209.144 20.4301C208.982 20.7099 208.896 21.0267 208.894 21.3497C208.894 22.0434 209.362 22.6438 210.285 23.147C211.209 23.6503 212.971 24.3081 215.523 25.0881C219.114 26.1773 221.86 27.6835 223.694 29.5527Z" fill="#FDBF63"/>
<path d="M27.3412 9.73893H25.001L20.1878 23.104H18.2035L13.4369 13.0389L9.15929 23.104H7.19656L2.26827 9.73893H0V6.77332H8.55177V9.73893H6.19368L8.5985 17.1692L12.5958 7.0753H14.8137L19.2064 17.2159L21.4495 9.73893H19.1129V6.77332H27.3376L27.3412 9.73893Z" fill="white"/>
<path d="M34.5162 9.73893V19.8328H37.1547V22.802H28.1141V19.8328H30.731V9.73893H28.1141V6.77332H37.1547V9.73893H34.5162Z" fill="white"/>
<path d="M54.2582 16.0728V22.802H38.6968V19.8328H41.3138V9.73893H38.6968V6.77332H47.6835V9.73893H45.0882V19.8328H50.7211V16.0728H54.2582Z" fill="white"/>
<path d="M68.3925 7.61425C69.8031 8.14558 71.0378 9.05919 71.9584 10.2527C72.8859 11.451 73.3496 12.9619 73.3496 14.7856C73.4093 16.4068 72.9191 18.0005 71.9584 19.3077C71.0334 20.5124 69.7876 21.4319 68.3637 21.9606C66.9073 22.5217 65.3593 22.807 63.7985 22.8018H55.7823V19.8326H58.4316V9.73867H55.8147V6.77306H63.8237C65.3857 6.76656 66.9352 7.05187 68.3925 7.61425ZM67.6232 18.7829C68.8047 18.0831 69.3966 16.7507 69.399 14.7856C69.399 11.4306 67.3968 9.75306 63.3923 9.75306H62.2024V19.8469H63.3923C64.8731 19.8835 66.3359 19.5157 67.6232 18.7829Z" fill="white"/>
<path d="M123.855 77.858V87.9519H126.45V90.9175H117.464V87.9519H120.059V84.1415H112.87V87.9519H115.44V90.9175H106.453V87.9519H109.07V77.858H106.453V74.9067H115.44V77.876H112.87V81.3772H120.059V77.8724H117.464V74.9067H126.45V77.876L123.855 77.858Z" fill="white"/>
<path d="M134.405 77.858V87.9519H137.044V90.9175H128.003V87.9519H130.62V77.858H128.003V74.9067H137.044V77.876L134.405 77.858Z" fill="white"/>
<path d="M152.163 83.3472C152.7 83.7105 153.137 84.2025 153.435 84.7784C153.732 85.3542 153.881 85.9954 153.867 86.6435C153.893 87.5162 153.641 88.3745 153.148 89.0951C152.647 89.7964 151.96 90.3431 151.164 90.6731C150.262 91.0519 149.291 91.2391 148.313 91.2231C147.325 91.2262 146.346 91.0268 145.437 90.6372C144.455 90.2111 143.535 89.6537 142.702 88.98V90.896H139.406V85.0546L141.742 84.936C142.579 85.9365 143.615 86.7528 144.783 87.3336C145.786 87.8906 146.905 88.2058 148.051 88.2539C148.526 88.2781 148.999 88.1738 149.42 87.952C149.58 87.8607 149.711 87.7271 149.799 87.5659C149.887 87.4048 149.929 87.2224 149.92 87.0389C149.92 86.5596 149.539 86.1163 148.777 85.7089C147.507 85.1203 146.183 84.6579 144.823 84.3285C142.953 83.8157 141.59 83.1423 140.732 82.3083C140.311 81.9026 139.98 81.4137 139.759 80.8727C139.538 80.3318 139.432 79.7507 139.449 79.1665C139.434 78.2977 139.704 77.4479 140.218 76.7473C140.746 76.0438 141.447 75.4889 142.253 75.1369C143.095 74.7526 144.012 74.5563 144.938 74.5618C146.715 74.5085 148.443 75.1537 149.751 76.3591V74.9068H153.047V80.5865L150.826 80.7015C150.347 79.7421 149.606 78.9373 148.691 78.3793C147.855 77.8483 146.888 77.5608 145.897 77.5489C145.274 77.5245 144.655 77.6607 144.1 77.9443C143.896 78.0413 143.722 78.1939 143.6 78.3846C143.478 78.5753 143.412 78.7964 143.41 79.0227C143.41 79.4613 143.701 79.8387 144.276 80.1587C145.28 80.6263 146.329 80.9877 147.407 81.2371C149.439 81.8098 151.025 82.5132 152.163 83.3472Z" fill="white"/>
<path d="M172.16 74.9067V81.0752H168.868V77.876H165.456V87.9698H168.001V90.9354H159.101V87.9698H161.671V77.876H158.234V81.0752H154.942V74.9067H172.16Z" fill="white"/>
<path d="M177.678 90.1125C176.377 89.411 175.29 88.37 174.533 87.1002C173.791 85.8245 173.401 84.3753 173.401 82.8998C173.401 81.4242 173.791 79.975 174.533 78.6994C175.287 77.4237 176.374 76.3774 177.678 75.6727C179.053 74.9226 180.598 74.54 182.164 74.5619C183.719 74.541 185.252 74.9237 186.615 75.6727C187.912 76.3809 188.994 77.4267 189.746 78.6994C190.487 79.975 190.878 81.4242 190.878 82.8998C190.878 84.3753 190.487 85.8245 189.746 87.1002C188.991 88.367 187.91 89.4075 186.615 90.1125C185.252 90.8615 183.719 91.2442 182.164 91.2233C180.598 91.2452 179.053 90.8626 177.678 90.1125ZM184.699 87.4489C185.419 86.9771 185.993 86.3135 186.356 85.5329C186.732 84.7037 186.927 83.8034 186.927 82.8926C186.927 81.9818 186.732 81.0815 186.356 80.2523C185.993 79.4717 185.419 78.8081 184.699 78.3363C183.927 77.8672 183.042 77.619 182.139 77.619C181.236 77.619 180.351 77.8672 179.58 78.3363C178.86 78.8153 178.287 79.4832 177.923 80.2667C177.546 81.0953 177.351 81.995 177.351 82.9052C177.351 83.8154 177.546 84.715 177.923 85.5437C178.283 86.3232 178.858 86.984 179.58 87.4489C180.354 87.9296 181.253 88.1733 182.164 88.1498C183.06 88.1719 183.942 87.928 184.699 87.4489Z" fill="white"/>
<path d="M210.904 89.5623C210.47 90.047 209.96 90.4574 209.394 90.7773C208.757 91.1094 208.045 91.2704 207.327 91.2446C206.631 91.2629 205.94 91.1341 205.297 90.8665C204.655 90.5989 204.076 90.1985 203.599 89.6917C202.612 88.6564 201.868 87.04 201.367 84.8424L201.299 84.5405H198.822V87.9734H201.338V90.9175H192.434V87.9519H195.03V77.858H192.413V74.9067H202.018C203.947 74.9067 205.496 75.3237 206.666 76.1577C207.233 76.5519 207.691 77.0833 207.998 77.7024C208.305 78.3215 208.45 79.0082 208.42 79.6984C208.461 80.7864 208.108 81.8526 207.424 82.7C206.687 83.5326 205.699 84.1028 204.61 84.3248L204.728 84.6843C205.088 85.8525 205.523 86.6685 206.001 87.1287C206.201 87.3401 206.442 87.5097 206.708 87.6275C206.975 87.7454 207.262 87.8092 207.554 87.8153C207.859 87.8228 208.162 87.764 208.441 87.6427C208.705 87.5127 208.948 87.343 209.16 87.1395L210.904 89.5623ZM198.822 81.7582H202.14C202.763 81.7687 203.376 81.5989 203.905 81.2693C204.166 81.0995 204.377 80.8623 204.515 80.5826C204.653 80.303 204.713 79.9913 204.689 79.6805C204.71 79.3983 204.649 79.1161 204.514 78.8675C204.379 78.6189 204.175 78.4144 203.927 78.2786C203.374 77.9857 202.755 77.8408 202.129 77.858H198.811L198.822 81.7582Z" fill="white"/>
<path d="M220.911 84.3068V87.9519H223.575V90.9175H214.441V87.9519H217.105V84.447L211.774 77.858H209.976V74.9067H217.676V77.876H216.238L219.473 81.9882L222.417 77.876H220.315V74.9067H228V77.876H226.037L220.911 84.3068Z" fill="white"/>
</svg>
